HIERARCHY
ROOT root
{
	OFFSET 0.000000 0.000000 0.000000
	CHANNELS 6 Xposition Yposition Zposition Zrotation Yrotation Xrotation
	JOINT lhip
	{
		OFFSET 0.058581 -0.082280 -0.017664
		CHANNELS 3 Zrotation Yrotation Xrotation
		JOINT lknee
		{
			OFFSET 0.043451 -0.386469 0.008037
			CHANNELS 3 Zrotation Yrotation Xrotation
			JOINT lankle
			{
				OFFSET -0.014790 -0.426874 -0.037428
				CHANNELS 3 Zrotation Yrotation Xrotation
				JOINT ltoe
				{
					OFFSET 0.041054 -0.060286 0.122042
					CHANNELS 3 Zrotation Yrotation Xrotation
					End Site
					{
						OFFSET 0.000000 0.000000 0.000000
					}
				}
			}
		}
	}
	JOINT rhip
	{
		OFFSET -0.060310 -0.090513 -0.013543
		CHANNELS 3 Zrotation Yrotation Xrotation
		JOINT rknee
		{
			OFFSET -0.043257 -0.383688 -0.004843
			CHANNELS 3 Zrotation Yrotation Xrotation
			JOINT rankle
			{
				OFFSET 0.019056 -0.420046 -0.034562
				CHANNELS 3 Zrotation Yrotation Xrotation
				JOINT rtoe
				{
					OFFSET -0.034840 -0.062106 0.130323
					CHANNELS 3 Zrotation Yrotation Xrotation
					End Site
					{
						OFFSET 0.000000 0.000000 0.000000
					}
				}
			}
		}
	}
	JOINT lowerback
	{
		OFFSET 0.004439 0.124404 -0.038385
		CHANNELS 3 Zrotation Yrotation Xrotation
		JOINT upperback
		{
			OFFSET 0.004488 0.137956 0.026820
			CHANNELS 3 Zrotation Yrotation Xrotation
			JOINT chest
			{
				OFFSET -0.002265 0.056032 0.002855
				CHANNELS 3 Zrotation Yrotation Xrotation
				JOINT lowerneck
				{
					OFFSET -0.013390 0.211636 -0.033468
					CHANNELS 3 Zrotation Yrotation Xrotation
					JOINT upperneck
					{
						OFFSET 0.010113 0.088937 0.050410
						CHANNELS 3 Zrotation Yrotation Xrotation
						End Site
						{
							OFFSET 0.000000 0.000000 0.000000
						}
					}
				}
				JOINT lclavicle
				{
					OFFSET 0.071702 0.114000 -0.018898
					CHANNELS 3 Zrotation Yrotation Xrotation
					JOINT lshoulder
					{
						OFFSET 0.122921 0.045205 -0.019046
						CHANNELS 3 Zrotation Yrotation Xrotation
						JOINT lelbow
						{
							OFFSET 0.255332 -0.015649 -0.022946
							CHANNELS 3 Zrotation Yrotation Xrotation
							JOINT lwrist
							{
								OFFSET 0.265709 0.012698 -0.007375
								CHANNELS 3 Zrotation Yrotation Xrotation
								End Site
								{
									OFFSET 0.000000 0.000000 0.000000
								}
							}
						}
					}
				}
				JOINT rclavicle
				{
					OFFSET -0.082954 0.112472 -0.023707
					CHANNELS 3 Zrotation Yrotation Xrotation
					JOINT rshoulder
					{
						OFFSET -0.113228 0.046853 -0.008472
						CHANNELS 3 Zrotation Yrotation Xrotation
						JOINT relbow
						{
							OFFSET -0.260127 -0.014369 -0.031269
							CHANNELS 3 Zrotation Yrotation Xrotation
							JOINT rwrist
							{
								OFFSET -0.269108 0.006794 -0.006027
								CHANNELS 3 Zrotation Yrotation Xrotation
								End Site
								{
									OFFSET 0.000000 0.000000 0.000000
								}
							}
						}
					}
				}
			}
		}
	}
}
MOTION
Frames: 11
Frame Time: 0.033333
1.247536 -0.224862 1.014133 -0.781683 -0.777236 79.644984 -0.349467 -1.494188 1.694580 -3.494614 -16.704353 5.502616 0.521439 1.437031 -3.126869 0.000000 -0.000000 0.000000 -1.880293 -6.071802 -8.956363 -2.493796 -14.881519 36.736998 3.369737 -13.042015 -8.715651 0.000000 -0.000000 0.000000 -0.740233 -0.488367 17.505304 2.317772 -1.081472 0.808395 0.990855 -1.265081 1.733305 2.613552 0.918216 6.624467 -1.425190 -3.987303 17.185769 -26.338387 2.064616 2.672329 -53.686049 -11.959140 7.777328 14.520223 -37.873377 -2.917999 -0.924773 -4.136507 -10.164477 27.932424 2.626457 2.532256 55.462596 7.009784 12.230364 -18.679999 28.048082 -14.376917 3.184442 3.909891 -6.981496 
1.244455 -0.238022 1.013449 -2.359528 -1.124846 79.825199 -0.227882 -0.642956 2.495446 -3.705704 -15.693927 5.448182 0.597239 1.503022 -3.902266 0.000000 -0.000000 0.000000 -1.406489 -7.778021 -8.430840 -2.923703 -17.108492 32.280867 1.637813 -14.998841 -10.612536 0.000000 -0.000000 0.000000 -0.687262 0.034336 17.001094 1.856120 -0.884050 0.671337 0.975097 -1.159576 1.834676 2.644248 0.899901 6.744835 -1.119396 -4.008779 17.329223 -25.524889 1.499417 2.723796 -53.267127 -12.979399 7.180216 14.818257 -38.442917 -3.125096 -0.512658 -4.096792 -10.865570 27.880929 2.827262 2.497835 56.084266 6.829089 12.192537 -18.630122 28.581901 -13.499756 3.056505 3.818582 -6.892953 
1.241415 -0.250489 1.013009 -4.749952 -1.516742 79.906986 -0.153736 0.104882 3.495938 -3.760860 -14.465456 5.452419 0.458151 1.883856 -4.760364 0.000000 -0.000000 0.000000 -1.080765 -9.150168 -7.134491 -2.921229 -18.931822 30.123641 1.152630 -15.520970 -11.884993 0.000000 -0.000000 0.000000 -0.455995 0.587402 16.694794 1.417561 -0.490762 0.377038 0.952990 -1.083543 1.780351 2.453136 0.978831 6.859926 -1.211302 -3.842639 17.712450 -25.664399 1.162205 2.468164 -52.465361 -13.270472 6.534492 15.191160 -38.555563 -3.658961 -0.699358 -4.135390 -10.493098 27.739094 3.218023 2.710136 56.291716 6.787379 12.149510 -17.844494 28.688705 -12.837012 3.502081 3.985042 -6.487294 
1.238003 -0.261634 1.012621 -8.220671 -1.847805 80.368374 0.002258 0.702391 3.921080 -3.900256 -12.792460 5.992960 0.745178 2.917387 -5.976953 0.000000 -0.000000 0.000000 -0.579985 -9.599618 -5.404204 -2.394547 -18.277110 27.111753 0.973188 -14.649437 -13.216340 0.000000 -0.000000 0.000000 0.101446 1.155269 16.014004 0.947800 0.035910 0.073310 0.581566 -0.533916 1.716637 2.273520 1.046600 6.611305 -1.369014 -3.739448 18.122141 -25.914063 1.275864 2.041177 -51.866157 -13.182881 6.065456 15.304203 -38.389773 -4.153804 -0.466788 -3.987679 -9.934120 27.953376 3.434337 2.773619 56.330098 6.550439 12.385133 -17.327764 28.775520 -11.461471 3.871818 4.108131 -5.475111 
1.233749 -0.271725 1.011985 -12.007809 -2.239686 81.132334 -0.247096 0.833807 3.819488 -3.734620 -10.962168 6.947795 1.110344 4.407886 -7.349111 0.000000 -0.000000 0.000000 -0.324030 -9.056746 -3.722857 -1.200912 -15.596168 23.534378 0.609945 -13.703940 -14.533863 0.000000 -0.000000 0.000000 0.180529 1.654421 15.057519 0.660880 0.506956 -0.136864 0.384185 -0.202660 1.604589 2.125914 1.313852 6.050473 -1.409115 -3.806929 18.272272 -26.415310 1.860767 1.769963 -51.572489 -12.732390 5.786272 15.867516 -38.034979 -5.347825 -0.370508 -3.885832 -9.928326 28.182380 3.390551 2.766772 56.577507 6.615333 12.979947 -17.027111 28.733913 -10.448358 4.365150 3.847811 -4.824858 
1.228529 -0.281370 1.012698 -15.797359 -2.051423 81.217744 -0.047813 1.313963 4.101181 -3.359062 -9.485099 8.569065 1.449416 5.825506 -8.489470 0.000000 -0.000000 0.000000 0.017345 -8.692237 -2.161122 -0.178400 -13.692963 21.801185 0.839832 -11.937738 -14.449961 0.000000 -0.000000 0.000000 0.628166 1.619906 14.570748 0.572168 0.713711 0.043486 0.197379 0.103628 1.736673 2.313546 1.306382 5.123437 -1.653820 -3.823997 18.568175 -26.972163 2.474871 1.458568 -51.688877 -12.181285 5.424565 16.262637 -36.869271 -6.097481 0.081700 -4.067906 -9.883630 28.482170 3.494847 2.494636 56.412307 7.098317 13.392960 -16.041566 28.307017 -9.502485 3.954606 3.860388 -4.588802 
1.224493 -0.288424 1.014330 -20.101611 -1.625465 81.630224 0.135026 1.367638 3.372825 -2.963775 -7.495957 11.267508 1.480895 7.662230 -9.760831 0.000000 -0.000000 0.000000 0.950786 -7.116476 -1.865257 0.159343 -12.107352 21.191252 0.986936 -10.534691 -14.042973 0.000000 -0.000000 0.000000 1.152852 1.450316 14.304163 0.700724 0.870700 -0.159434 0.147412 0.295801 1.693475 2.229511 1.010914 4.659994 -1.806258 -3.646296 18.200436 -27.433071 3.100546 1.545089 -52.443374 -11.256984 5.294137 16.607603 -35.368892 -7.281382 0.030546 -3.868897 -10.267107 28.403706 3.609420 2.514276 56.557979 7.618952 13.626078 -15.772536 27.966880 -9.271249 4.086900 4.180872 -4.883786 
1.218624 -0.294066 1.013946 -24.126349 -1.260312 82.009776 0.493402 1.330397 1.679838 -2.892943 -5.629819 15.708852 1.628674 9.323902 -10.924832 0.000000 -0.000000 0.000000 2.059833 -6.052044 -1.480905 0.511521 -9.644252 20.544768 0.339073 -9.569171 -14.443655 0.000000 -0.000000 0.000000 0.958167 1.323648 14.192959 1.020721 0.622265 -0.546049 0.324477 0.491326 1.825116 2.723415 0.211501 3.969193 -1.792479 -4.084033 17.999769 -27.341718 3.539127 1.812983 -53.372636 -10.261771 5.194337 16.075810 -33.786625 -6.915261 0.159499 -3.502031 -10.925474 28.389568 3.356292 2.305919 56.825237 7.778799 13.788288 -15.528673 28.694883 -8.365936 3.507711 3.862563 -5.491088 
1.212972 -0.299000 1.013412 -27.991214 -0.836392 81.584480 0.943824 1.674168 -0.311637 -2.678009 -3.982066 22.203647 0.947335 10.157087 -11.137989 0.000000 -0.000000 0.000000 3.045339 -5.428432 -0.001466 0.582495 -7.367673 19.458238 -0.252604 -8.449023 -14.425526 0.000000 -0.000000 0.000000 0.888463 1.291433 14.989244 1.316170 0.110581 -0.590039 0.544698 0.173845 1.739655 2.836198 -0.166182 3.625608 -1.341051 -4.257042 17.818990 -27.510493 3.426074 2.268813 -53.698446 -9.048955 5.222131 14.883544 -32.144907 -5.603819 -0.261325 -3.230582 -10.061420 28.244921 3.725617 2.271376 56.870149 7.855244 13.844138 -15.279425 29.472771 -8.247768 2.492368 4.140986 -6.157338 
1.208054 -0.303108 1.012357 -32.498714 -0.631403 81.528603 1.468702 1.024325 -3.020222 -2.990693 -2.068532 29.318984 0.271765 10.865027 -9.983116 0.000000 -0.000000 0.000000 3.522685 -4.559011 0.596963 1.175851 -4.715126 19.182466 -0.737189 -7.609948 -14.334598 0.000000 -0.000000 0.000000 0.628936 1.594661 15.201172 1.791623 -0.276137 -0.583363 0.682448 -0.157800 2.254712 3.621143 -1.462843 2.991601 -1.756093 -4.522234 17.634126 -28.254475 3.432288 1.825016 -53.597689 -8.172930 5.643950 12.888412 -29.868058 -3.891471 -1.120463 -3.397890 -9.991641 28.236472 3.357365 1.499921 56.537937 7.987197 14.563788 -14.789701 30.503293 -7.666202 2.545205 4.141151 -6.936115 
1.203184 -0.307733 1.011473 -37.287969 -0.310697 81.234924 2.377747 0.626106 -5.489829 -3.606515 -0.642150 35.850175 0.053072 10.882337 -7.537482 0.000000 -0.000000 0.000000 4.046797 -3.460327 1.411696 1.493955 -2.871950 18.985895 -1.509990 -6.228993 -14.524978 0.000000 -0.000000 0.000000 0.642838 1.802019 15.585980 2.028060 -0.722211 -0.382714 0.497453 -0.036981 1.891241 3.248449 -1.936817 3.800272 -0.927845 -5.136025 17.410116 -28.445276 2.817333 2.464490 -53.830949 -7.105270 6.110833 11.418461 -27.981620 -1.588222 -2.055013 -2.986103 -8.313325 28.157808 3.404568 2.217765 56.365920 7.984877 14.054751 -14.395927 31.527526 -6.668631 2.867251 3.954423 -7.532745 
